<?xml version="1.0" encoding="utf-8"?>
<!-- Generator: Adobe Illustrator 22.1.0, SVG Export Plug-In . SVG Version: 6.00 Build 0)  -->
<svg version="1.1" id="Layer_1" xmlns="http://www.w3.org/2000/svg" xmlns:xlink="http://www.w3.org/1999/xlink" x="0px" y="0px"
	 viewBox="0 0 512 481.5" style="enable-background:new 0 0 512 481.5;" xml:space="preserve">
<style type="text/css">
	.st0{fill:#FFFFFF;}
	.st1{fill:#FCFCFC;}
</style>
<title>parcel track location</title>
<path class="st0" d="M400,330c-11.3,0-20.5,9.2-20.5,20.5c0,11.3,9.2,20.5,20.5,20.5c11.3,0,20.5-9.2,20.5-20.5c0,0,0,0,0,0
	C420.5,339.2,411.3,330,400,330z"/>
<polygon class="st1" points="387.9,146.9 302,97.3 122.1,201.2 208,250.8 "/>
<polygon class="st1" points="202,261.2 22,157.3 22,365.1 202,469 "/>
<polygon class="st1" points="28,146.9 110.1,194.3 290,90.4 208,43 "/>
<path class="st1" d="M393.9,269.4V157.3L214,261.2V469l93.9-54.2c-24.1-50.9-2.4-111.7,48.5-135.8
	C368.1,273.4,380.9,270.2,393.9,269.4z"/>
<path class="st1" d="M400,281.2c-49.7,0-90,40.3-90,90c0,49.7,40.3,90,90,90c49.7,0,90-40.3,90-90
	C489.9,321.5,449.7,281.3,400,281.2z M449,381.7L405,445.4c-1.9,2.7-5.6,3.4-8.3,1.5c-0.6-0.4-1.1-0.9-1.5-1.5L351,381.7
	c-15.4-22.3-12.2-52.5,7.5-71c22.9-21.8,60.1-21.8,82.9,0C461.2,329.3,464.4,359.5,449,381.7L449,381.7z"/>
<path class="st1" d="M433.2,319.4c-18.7-17.4-47.7-17.4-66.4,0c-15.5,14.5-18,38.1-6,55.5l39.1,56.6l39.1-56.6
	C451.2,357.5,448.7,333.9,433.2,319.4z M400,382.9c-17.9,0-32.5-14.5-32.5-32.5c0-17.9,14.5-32.5,32.5-32.5
	c17.9,0,32.5,14.5,32.5,32.5c0,0,0,0,0,0C432.5,368.4,417.9,382.9,400,382.9L400,382.9z"/>
</svg>
