<?xml version="1.0"?>
<svg xmlns="http://www.w3.org/2000/svg" viewBox="0 0 64 64" width="512" height="512"><g id="Location"><path d="M61.53,31.152,54.887,27l6.643-4.152a1,1,0,0,0-.015-1.7L44.3,10.813a12.983,12.983,0,0,0-24.59,0L2.485,21.143a1,1,0,0,0-.015,1.7L9.113,27,2.47,31.152A1,1,0,0,0,2.5,32.868L10,37.152V49a1,1,0,0,0,.5.868l21,12a1,1,0,0,0,.992,0l21-12A1,1,0,0,0,54,49V37.152l7.5-4.284a1,1,0,0,0,.034-1.716ZM42.567,22.193,50.984,27,32,37.848,13.016,27l8.417-4.807a85.324,85.324,0,0,0,9.823,13.475,1,1,0,0,0,1.488,0A85.324,85.324,0,0,0,42.567,22.193Zm16.518-.175-6.108,3.817-9.5-5.426A13.56,13.56,0,0,0,45,15a13.032,13.032,0,0,0-.092-1.487ZM32,4A11.013,11.013,0,0,1,43,15c0,4.767-7.351,14.261-11,18.485C28.351,29.262,21,19.77,21,15A11.013,11.013,0,0,1,32,4ZM19.092,13.513A13.032,13.032,0,0,0,19,15a13.56,13.56,0,0,0,1.524,5.409l-9.5,5.426L4.915,22.018ZM11.023,28.165,30.052,39.038l-6.075,3.8L4.948,31.962ZM12,38.294l11.5,6.574a1,1,0,0,0,1.026-.02L31,40.8V59.277L12,48.42ZM52,48.42,33,59.277V40.8l6.47,4.044a1,1,0,0,0,1.026.02L52,38.294ZM40.023,42.835l-6.075-3.8L52.977,28.165l6.075,3.8Z"/><path d="M38.538,52.112l-3.052,1.744a1,1,0,1,0,.993,1.737l3.051-1.744a1,1,0,0,0-.992-1.737Z"/><path d="M41.972,52.3a.988.988,0,0,0,.495-.132l1.139-.651a1,1,0,1,0-.992-1.737l-1.139.652a1,1,0,0,0,.5,1.868Z"/><path d="M38.538,48.112l-3.052,1.744a1,1,0,1,0,.993,1.737l3.051-1.744a1,1,0,0,0-.992-1.737Z"/><path d="M41.972,48.3a.988.988,0,0,0,.495-.132l1.139-.651a1,1,0,1,0-.992-1.737l-1.139.652a1,1,0,0,0,.5,1.868Z"/><path d="M32,19a5,5,0,1,0-5-5A5.006,5.006,0,0,0,32,19Zm0-8a3,3,0,1,1-3,3A3,3,0,0,1,32,11Z"/></g></svg>
